<svg width="24" height="24" fill="none" xmlns="http://www.w3.org/2000/svg"><g clip-path="url(#clip0_22_444)" fill="#000"><path d="M23.845 8.224a.533.533 0 00-.444-.148h-6.367V5.263a5.034 5.034 0 10-10.068 0v2.813H.599c-.178 0-.355 0-.444.148a.504.504 0 00-.148.444l2.22 12.142a3.613 3.613 0 003.495 2.961h12.556a3.643 3.643 0 003.494-2.99l2.221-12.113a.503.503 0 00-.148-.444zM8.15 5.263a3.85 3.85 0 117.7 0v2.813h-7.7V5.263zm12.438 15.37a2.37 2.37 0 01-2.31 1.954H5.722a2.37 2.37 0 01-2.31-1.955L1.31 9.261h21.38l-2.102 11.371z"/><path d="M16.442 15.035a.592.592 0 00.592-.592v-1.777a.592.592 0 10-1.184 0v1.777c0 .327.265.592.592.592zm-8.884 0a.592.592 0 00.592-.592v-1.777a.592.592 0 10-1.184 0v1.777c0 .327.265.592.592.592z"/></g><defs><clipPath id="clip0_22_444"><path fill="#fff" d="M0 0h24v24H0z"/></clipPath></defs></svg>