<svg width="27" height="27" fill="none" xmlns="http://www.w3.org/2000/svg"><g clip-path="url(#clip0_22_422)" fill="#6E9C9F"><path d="M8.252 7.816a3.856 3.856 0 000 5.447l.798-.797a2.727 2.727 0 010-3.852 2.727 2.727 0 013.852 0l.798-.798a3.856 3.856 0 00-5.448 0z"/><path d="M9.841 9.391a1.623 1.623 0 000 2.293l.798-.797a.49.49 0 010-.698.49.49 0 01.698 0l.797-.798a1.623 1.623 0 00-2.293 0zm9.907-1.956l-1.893-1.887-3.932 3.926 1.524 1.574c-.255.453-.81 1.322-1.754 2.266a10.92 10.92 0 01-2.277 1.765l-1.544-1.524-3.87 3.848 1.883 1.895c.72.72 1.815.906 2.725.464 1.389-.674 3.485-1.919 5.584-4.018 2.099-2.099 3.344-4.195 4.018-5.584.16-.33.238-.682.238-1.033 0-.62-.242-1.232-.702-1.692zm-.55 2.232c-.637 1.311-1.814 3.292-3.802 5.28-1.988 1.987-3.968 3.164-5.279 3.8a1.255 1.255 0 01-1.433-.245l-1.087-1.094 2.278-2.265 1.315 1.298.352-.156c.057-.026 1.417-.641 2.949-2.173 1.533-1.533 2.135-2.882 2.16-2.938l.153-.347-1.297-1.34 2.349-2.345 1.095 1.091c.38.38.479.956.246 1.434z"/></g><defs><clipPath id="clip0_22_422"><path fill="#fff" transform="translate(6 3)" d="M0 0h17v17H0z"/></clipPath></defs></svg>