<svg width="24" height="24" viewBox="0 0 24 24" fill="none" xmlns="http://www.w3.org/2000/svg">
<g clip-path="url(#clip0_22_444)">
<path d="M23.8454 8.22411C23.7281 8.10888 23.5642 8.05424 23.4012 8.07606H17.0343V5.26277C17.0343 2.48241 14.7804 0.228516 12.0001 0.228516C9.21971 0.228516 6.96582 2.48241 6.96582 5.26277V8.07606H0.598861C0.421164 8.07606 0.243523 8.07606 0.154646 8.22411C0.0352739 8.33884 -0.0201042 8.50492 0.00659291 8.66833L2.22761 20.8098C2.53789 22.5035 4.00034 23.7429 5.72199 23.7712H18.278C20.0046 23.7287 21.464 22.4795 21.7724 20.7802L23.9934 8.66833C24.0201 8.50492 23.9648 8.33884 23.8454 8.22411ZM8.1503 5.26277C8.1503 3.13663 9.87388 1.41305 12 1.41305C14.1261 1.41305 15.8497 3.13663 15.8497 5.26277V8.07606H8.1503V5.26277ZM20.5879 20.6321C20.3884 21.7545 19.4179 22.5757 18.278 22.5866H5.72199C4.58212 22.5757 3.61161 21.7545 3.41215 20.6321L1.30959 9.2606H22.6904L20.5879 20.6321Z" fill="black"/>
<path d="M16.4419 15.0351C16.769 15.0351 17.0341 14.7699 17.0341 14.4428V12.666C17.0341 12.3389 16.769 12.0737 16.4419 12.0737C16.1148 12.0737 15.8496 12.3389 15.8496 12.666V14.4428C15.8496 14.7699 16.1148 15.0351 16.4419 15.0351Z" fill="black"/>
<path d="M7.55809 15.0351C7.8852 15.0351 8.15036 14.7699 8.15036 14.4428V12.666C8.15036 12.3389 7.8852 12.0737 7.55809 12.0737C7.23098 12.0737 6.96582 12.3389 6.96582 12.666V14.4428C6.96582 14.7699 7.23098 15.0351 7.55809 15.0351Z" fill="black"/>
</g>
<defs>
<clipPath id="clip0_22_444">
<rect width="24" height="24" fill="white"/>
</clipPath>
</defs>
</svg>
