<svg width="27" height="27" viewBox="0 0 27 27" fill="none" xmlns="http://www.w3.org/2000/svg">
<g clip-path="url(#clip0_22_422)">
<path d="M8.25235 7.81628C6.75052 9.31808 6.75052 11.7617 8.25232 13.2634L9.05001 12.4658C7.9881 11.4039 7.98807 9.67598 9.05004 8.61402C10.112 7.55209 11.8399 7.55208 12.9018 8.61399L13.6995 7.8163C12.1977 6.31448 9.75412 6.31451 8.25235 7.81628Z" fill="#6E9C9F"/>
<path d="M9.84133 9.39112C9.20916 10.0233 9.20913 11.0519 9.8413 11.6841L10.639 10.8865C10.5458 10.7933 10.4945 10.6694 10.4945 10.5376C10.4945 10.4059 10.5459 10.282 10.639 10.1889C10.7322 10.0957 10.8561 10.0444 10.9878 10.0444C11.1196 10.0444 11.2435 10.0957 11.3366 10.1889L12.1343 9.39114C11.5022 8.75895 10.4735 8.75895 9.84133 9.39112Z" fill="#6E9C9F"/>
<path d="M19.748 7.43499L17.8548 5.54834L13.9231 9.47353L15.4473 11.0477C15.1918 11.5011 14.6376 12.3698 13.693 13.3143C12.7483 14.259 11.8734 14.8196 11.4156 15.0791L9.8723 13.5555L6.00195 17.4028L7.8848 19.2982C8.60455 20.0179 9.69967 20.2044 10.6099 19.7624C11.9989 19.0878 14.0952 17.843 16.194 15.7442C18.2928 13.6454 19.5376 11.5491 20.2122 10.1601C20.372 9.83095 20.4497 9.47774 20.4497 9.12678C20.4497 8.50706 20.2075 7.89451 19.748 7.43499ZM19.1974 9.66719C18.5606 10.9783 17.3842 12.9585 15.3963 14.9464C13.4084 16.9344 11.4282 18.1108 10.117 18.7476C9.63905 18.9797 9.06257 18.8804 8.68389 18.5018L7.59715 17.4078L9.87512 15.1435L11.1898 16.4414L11.5416 16.2848C11.5987 16.2593 12.9592 15.6437 14.4909 14.112C16.0236 12.5793 16.6263 11.2304 16.6512 11.1737L16.8038 10.8267L15.5065 9.48691L17.8556 7.14165L18.9509 8.23313C19.3304 8.61316 19.4295 9.18938 19.1974 9.66719Z" fill="#6E9C9F"/>
</g>
<defs>
<clipPath id="clip0_22_422">
<rect width="17" height="17" fill="white" transform="translate(6 3)"/>
</clipPath>
</defs>
</svg>
