<svg width="139" height="25" fill="none" xmlns="http://www.w3.org/2000/svg"><g clip-path="url(#clip0_3162_148)"><path d="M21.517 22.65l-.358-1.672a28.3 28.3 0 00-4.02-9.625V8.64a3.659 3.659 0 001.465-2.928V4.248a.732.732 0 00-.733-.732h-.732V.732a.733.733 0 00-1.465 0v2.791A4.15 4.15 0 0012.5 5.315a4.15 4.15 0 00-3.174-1.792V.733a.732.732 0 00-1.465 0v2.783H7.13a.732.732 0 00-.732.732v1.465c0 1.195.576 2.259 1.464 2.928v2.712a28.3 28.3 0 00-4.02 9.625l-.358 1.671a.732.732 0 00.466.842A24.91 24.91 0 0012.5 25a24.91 24.91 0 008.552-1.51.732.732 0 00.465-.84zM15.918 4.98h1.22v.733a2.2 2.2 0 01-2.197 2.197h-1.709v-.244a2.689 2.689 0 012.686-2.686zm-8.057 0h1.221a2.689 2.689 0 012.686 2.686v.244h-1.71a2.2 2.2 0 01-2.197-2.197V4.98zm2.198 4.395h4.883c.25 0 .495-.025.732-.074v1.539H9.326V9.3c.237.049.482.074.733.074zm2.441 14.16c-2.541 0-5.044-.407-7.45-1.21l.224-1.04a26.84 26.84 0 013.715-8.98h7.022a26.84 26.84 0 013.716 8.98l.222 1.04a23.444 23.444 0 01-7.449 1.21z" fill="#000"/></g><path d="M41.52 6.704h1.36l1.504 3.952 1.52-3.952h1.36l-1.968 4.944 1.952 4.688 3.84-9.696h1.568L47.904 18h-1.248L44.4 12.64 42.128 18H40.88L36.144 6.64h1.552l3.856 9.696 1.936-4.688-1.968-4.944zM59.927 18.08c-.8 0-1.525-.16-2.176-.48a5.445 5.445 0 01-1.696-1.296 6.247 6.247 0 01-1.088-1.856 6.098 6.098 0 01-.384-2.128 5.9 5.9 0 01.4-2.16 6.124 6.124 0 011.136-1.84 5.42 5.42 0 011.712-1.28c.651-.32 1.36-.48 2.128-.48.8 0 1.526.165 2.176.496.651.33 1.211.773 1.68 1.328a6.25 6.25 0 011.088 1.856 6.011 6.011 0 01-.016 4.272 5.967 5.967 0 01-1.136 1.84 5.35 5.35 0 01-1.696 1.264 4.88 4.88 0 01-2.128.464zm-3.888-5.76c0 .576.091 1.136.272 1.68.192.533.459 1.008.8 1.424.342.416.752.747 1.232.992s1.014.368 1.6.368c.608 0 1.152-.128 1.632-.384s.886-.597 1.216-1.024a4.44 4.44 0 00.768-1.44 4.991 4.991 0 00.272-1.616c0-.576-.096-1.13-.288-1.664a4.351 4.351 0 00-.8-1.424 3.57 3.57 0 00-1.232-.992 3.333 3.333 0 00-1.568-.368c-.608 0-1.152.128-1.632.384-.48.245-.89.581-1.232 1.008-.33.427-.586.907-.768 1.44a4.894 4.894 0 00-.272 1.616zM78.712 18V9.328L74.968 16h-.88l-3.76-6.672V18h-1.44V6.64h1.52l4.112 7.376 4.128-7.376h1.504V18h-1.44zm9.216-11.36h1.216L93.784 18H92.25l-1.344-3.328h-4.769L84.808 18h-1.536l4.656-11.36zm2.657 6.912l-2.048-5.248-2.113 5.248h4.16zm5.468 3.328l7.328-8.96h-7.184V6.64h8.864v1.12l-7.2 8.96h7.2V18h-9.008v-1.12zM108.594 18V6.64h1.44V18h-1.44zm7.197-8.704V18h-1.44V6.64h1.216l6.944 8.88V6.656h1.44V18h-1.312l-6.848-8.704zm17.032 8.784c-.747 0-1.445-.16-2.096-.48a5.72 5.72 0 01-1.68-1.312 6.35 6.35 0 01-1.12-1.856 5.917 5.917 0 01-.4-2.144c0-.768.133-1.493.4-2.176a6.053 6.053 0 011.104-1.84c.48-.533 1.04-.95 1.68-1.248a4.858 4.858 0 012.112-.464c1.099 0 2.005.23 2.72.688a4.424 4.424 0 011.616 1.792l-1.104.768c-.331-.661-.784-1.152-1.36-1.472a3.855 3.855 0 00-1.904-.48c-.576 0-1.099.123-1.568.368a3.799 3.799 0 00-1.216 1.008c-.331.416-.587.89-.768 1.424a5.416 5.416 0 00-.256 1.664c0 .608.096 1.184.288 1.728.203.533.485 1.008.848 1.424.363.405.784.725 1.264.96s.997.352 1.552.352a3.72 3.72 0 001.856-.496c.587-.33 1.141-.837 1.664-1.52v1.488c-1.024 1.216-2.235 1.824-3.632 1.824zm3.456-4.656h-2.448v-1.088h3.664V18h-1.216v-4.576z" fill="#000"/><defs><clipPath id="clip0_3162_148"><path fill="#fff" d="M0 0h25v25H0z"/></clipPath></defs></svg>